<svg id="Layer_1" enable-background="new 0 0 256 256" height="512" viewBox="0 0 256 256" width="512" xmlns="http://www.w3.org/2000/svg"><circle cx="128" cy="128" fill="#382b73" r="120"/><circle cx="128" cy="128" fill="#473080" r="102.5"/><path d="m192.922 157.366c-2.441-3.264-6.407-4.278-10.308-3.521-3.38.655-6.534 2.354-9.644 3.766-3.105 1.409-6.202 2.856-9.396 4.057-.574-8.639-5.991-16.458-13.862-20.058-1.987-.909-4.099-1.54-6.259-1.87-.526-.081-2.047-.023-2.231-.398-.22-.448 0-1.556 0-2.055 0-1.626.083-3.142.788-4.655.465-.998 1.104-1.91 1.834-2.731.441-.496.919-.96 1.421-1.394.221-.191.447-.375.676-.555.14-.111.283-.22.427-.326.197-.291.36-.288.489.009.453.252.862.865 1.289 1.193.462.355.955.668 1.473.935 1.034.534 2.162.883 3.318 1.023 2.355.285 4.565-.376 6.58-1.57 3.686-2.184 6.602-5.583 9.067-9.031 1.05-1.469 2.028-2.989 2.94-4.547.288-.491.627-.99.856-1.513.452-1.031-.209-1.468-1.132-1.686-3.696-.873-7.497-1.441-11.297-1.51-4.728-.086-10.497.494-13.573 4.564-1.43 1.892-2.121 4.297-1.906 6.66.057.628.178 1.251.358 1.855.052.176.11.351.173.524.212.586.11.526-.396.901-1.247.924-2.405 1.979-3.383 3.187 0-3.852 0-7.704 0-11.556 0-2.352 0-4.703 0-7.055 0-.431-.183-1.351 0-1.749.122-.264.066-.159.559-.2 1.009-.085 2.012-.235 3.001-.451 7.254-1.583 13.444-6.725 16.355-13.552 1.339-3.14 1.847-6.438 1.847-9.833 0-3.152-.029-6.231-.919-9.293-2.41-8.283-9.472-14.696-17.955-16.285-8.955-1.678-18.249 2.167-23.402 9.674-2.565 3.736-3.975 8.19-4.05 12.719-.043 2.601-.112 5.262.323 7.832 1.241 7.333 6.097 13.758 12.794 16.985 1.7.82 3.501 1.429 5.35 1.809.902.186 1.816.317 2.733.394.541.045.434-.065.559.242.175.43 0 1.311 0 1.769v3.114 14.441.994c-.867-1.07-1.876-2.021-2.962-2.866-.221-.172-.718-.403-.858-.635-.154-.256-.03-.379.087-.717.207-.6.355-1.22.439-1.85.29-2.18-.191-4.427-1.343-6.3-2.576-4.188-7.769-5.179-12.332-5.314-4.248-.126-8.527.465-12.663 1.411-.701.16-1.728.273-1.706 1.219.014.618.644 1.394.946 1.914.937 1.613 1.946 3.186 3.031 4.703 2.626 3.675 5.8 7.37 9.872 9.478 2.24 1.16 4.753 1.518 7.202.841 1.168-.323 2.275-.865 3.246-1.589.472-.352.847-.818 1.306-1.172.384-.297.286-.345.733-.009.328.247.649.504.96.773 1.897 1.642 3.537 3.802 3.946 6.334.207 1.281.268 2.948.097 4.225-.011.084.055.373 0 .439-.162.195-1.651.152-1.954.195-1.223.173-2.432.44-3.613.801-2.353.719-4.59 1.809-6.61 3.215-1.958 1.362-3.709 3.018-5.18 4.897-.737.942-1.404 1.939-1.991 2.981-.228.405-.23.436-.669.559-.432.121-.927.122-1.375.177-.852.104-1.704.199-2.558.285-3.181.319-6.354.344-9.54.544-2.996.188-5.947.914-8.698 2.118-1.313.575-2.574 1.267-3.755 2.08-.282-2.027-.505-4.537-3.267-4.303-1.4.118-2.802.392-4.193.587 0-1.935-.371-3.868-2.491-4.538-.915-.289-2.019-.165-2.965-.165-3.055 0-6.109 0-9.164 0-1.363 0-2.646.183-3.571 1.337-.606.756-.779 1.651-.784 2.588-.009 1.632 0 3.265 0 4.898v19.071 15.992c0 2.105.346 4.381 2.884 4.869.874.168 1.843.068 2.726.068h4.872c2.426 0 6.438.749 7.955-1.681.271-.435.22-.628.654-.79.331-.124.785-.109 1.136-.159.54-.075 1.079-.152 1.619-.227.866-.122 1.733-.243 2.599-.364 1.411-.197 2.827-.374 4.236-.593 1.809-.28 2.631-1.666 2.397-3.408-.052-.385-.458-1.654-.277-1.979.152-.275 1.135-.518 1.443-.637.705-.272 1.425-.509 2.156-.704 2.882-.769 5.783-.779 8.716-.323 11.252 1.748 22.036 6.395 33.63 4.566 5.621-.886 10.569-3.408 15.415-6.265 4.339-2.558 8.547-5.338 12.688-8.203 7.009-4.849 13.842-9.958 20.541-15.227 1.363-1.078 2.849-2.59 1.49-4.4z" fill="#382b73"/><g fill="#e7ad27"><path d="m139.819 144.799c-.775 0-1.403-.628-1.403-1.403v-53.906c0-.774.628-1.403 1.403-1.403s1.403.628 1.403 1.403v53.906c0 .775-.628 1.403-1.403 1.403z"/><path d="m139.819 133.578c-.775 0-1.403-.628-1.403-1.403v-3.151c0-3.564-2.63-7.115-7.216-9.743-.672-.385-.904-1.242-.519-1.914s1.242-.905 1.914-.519c5.563 3.188 8.626 7.512 8.626 12.177v3.151c.001.774-.627 1.402-1.402 1.402z"/><path d="m139.819 133.578c-.775 0-1.403-.628-1.403-1.403v-3.151c0-4.664 3.064-8.989 8.626-12.177.672-.385 1.529-.152 1.914.519.385.672.152 1.529-.519 1.914-4.586 2.628-7.216 6.179-7.216 9.743v3.151c.001.776-.627 1.404-1.402 1.404z"/></g><path d="m172.44 107.014c-1.785 3.293-7.48 12.924-14.546 16.043-4.929 2.175-10.819-.25-12.795-5.262-1.877-4.762.326-10.198 5.051-12.283 7.063-3.118 18.01-.837 21.65.063.636.156.952.863.64 1.439z" fill="#1caee4"/><path d="m157.894 123.056c7.066-3.118 12.76-12.75 14.546-16.043.122-.225.148-.469.097-.693-.046-.041-.098-.073-.157-.096-.604-.243-1.797.386-2.347.553-1.173.357-2.343.727-3.506 1.113-2.329.773-4.636 1.609-6.912 2.527-2.089.842-4.151 1.753-6.173 2.745-.919.451-1.824.934-2.674 1.508-1.052.711-1.875 1.524-2.557 2.447-.679.919-1.218 1.947-1.705 3.093.018.023.034.048.052.07.039.049.082.095.123.143.032.038.062.077.093.116 2.683 3.07 7.204 4.245 11.12 2.517z" fill="#009add"/><path d="m107.199 107.014c1.785 3.293 7.48 12.924 14.546 16.043 4.929 2.175 10.819-.25 12.795-5.262 1.877-4.762-.326-10.198-5.051-12.283-7.063-3.118-18.01-.837-21.65.063-.637.156-.952.863-.64 1.439z" fill="#1caee4"/><path d="m128.871 114.671c-.849-.574-1.754-1.057-2.674-1.508-3.419-1.677-6.949-3.121-10.536-4.397-1.796-.639-3.607-1.235-5.429-1.797-.647-.2-1.99-.902-2.647-.793-.617.102-.456.53-.333.935 1.843 3.382 7.495 12.856 14.492 15.944 3.722 1.643 7.992.661 10.711-2.076.172-.178.34-.363.503-.555.04-.048.083-.094.123-.143.018-.023.034-.048.052-.07-.487-1.146-1.026-2.174-1.705-3.093-.682-.923-1.505-1.736-2.557-2.447z" fill="#009add"/><path d="m116.655 77.979c0 12.794 10.371 23.165 23.165 23.165s23.165-10.371 23.165-23.165v-3.564c0-12.794-10.371-23.165-23.165-23.165s-23.165 10.371-23.165 23.165z" fill="#e7ad27"/><circle cx="139.819" cy="74.415" fill="#fede3a" r="23.165"/><ellipse cx="139.819" cy="74.415" fill="#f7cb15" rx="17.374" ry="17.374" transform="matrix(.707 -.707 .707 .707 -11.667 120.663)"/><path d="m139.819 58.328c9.378 0 17 7.436 17.341 16.73.008-.215.033-.426.033-.643 0-9.595-7.778-17.373-17.374-17.373-9.595 0-17.373 7.778-17.373 17.373 0 .217.025.428.032.643.342-9.294 7.963-16.73 17.341-16.73z" fill="#e7ad27"/><path d="m147.117 79.564c0-1.125-.224-2.119-.667-2.954-.442-.833-1.106-1.558-1.975-2.154-.819-.561-2.053-1.118-3.772-1.701-1.825-.62-2.665-1.174-3.049-1.53-.28-.259-.469-.588-.573-.993-.039-.151-.038-.316 0-.467.116-.454.337-.832.667-1.142.533-.5 1.297-.744 2.334-.744.988 0 1.733.3 2.278.919.58.658.861 1.555.861 2.744 0 .581.471 1.052 1.052 1.052h1.641c.581 0 1.052-.471 1.052-1.052 0-.048-.008-.089-.009-.136h.009v-1.052c0-2.073-.53-3.759-1.575-5.012-.73-.874-1.664-1.494-2.788-1.854-.432-.138-.725-.541-.725-.995v-.938-.136c0-.581-.471-1.052-1.052-1.052h-1.406c-.581 0-1.052.471-1.052 1.052v.136.91c0 .459-.298.869-.739 1-1.068.316-1.975.849-2.708 1.593-1.116 1.132-1.682 2.608-1.682 4.386 0 .211.032.404.048.606-.015.195-.048.379-.048.582 0 1.693.517 3.106 1.537 4.199.972 1.041 2.55 1.895 4.796 2.599 1.889.654 2.734 1.231 3.11 1.598.23.226.398.485.509.781.095.255.087.539-.015.791-.14.348-.364.65-.68.918-.632.537-1.454.798-2.511.798-1.224 0-2.13-.302-2.768-.923-.63-.612-.936-1.468-.936-2.617 0-.581-.471-1.052-1.052-1.052h-1.654c-.581 0-1.052.471-1.052 1.052 0 .048.01.089.01.136h-.01v1.052c0 2.085.61 3.772 1.813 5.013.838.865 1.913 1.464 3.208 1.792.462.117.783.536.783 1.013v.677.136c0 .581.471 1.052 1.052 1.052h1.392c.581 0 1.052-.471 1.052-1.052v-.136-.726c0-.465.306-.879.753-1.004 1.114-.31 2.056-.839 2.812-1.58 1.147-1.124 1.728-2.604 1.728-4.398 0-.254-.015-.499-.038-.74.01-.15.039-.29.039-.447z" fill="#e7ad27"/><path d="m146.45 76.61c-.442-.833-1.106-1.558-1.975-2.153-.819-.561-2.053-1.118-3.772-1.701-1.825-.62-2.666-1.174-3.05-1.53-.45-.417-.669-1.011-.669-1.816 0-.845.25-1.491.764-1.974.533-.5 1.297-.744 2.334-.744.988 0 1.734.3 2.278.919.58.658.861 1.555.861 2.744 0 .581.471 1.052 1.052 1.052h1.641c.581 0 1.052-.471 1.052-1.052 0-2.073-.53-3.759-1.575-5.011-.73-.874-1.664-1.494-2.788-1.854-.432-.138-.725-.541-.725-.995v-1.074c0-.581-.471-1.052-1.052-1.052h-1.406c-.581 0-1.052.471-1.052 1.052v1.046c0 .459-.298.869-.739 1-1.068.316-1.975.849-2.708 1.593-1.116 1.132-1.682 2.608-1.682 4.385 0 1.693.517 3.106 1.537 4.199.972 1.041 2.55 1.894 4.796 2.599 1.889.654 2.734 1.23 3.11 1.598.455.446.676 1.018.676 1.75 0 .816-.274 1.428-.862 1.928-.632.537-1.454.798-2.511.798-1.225 0-2.13-.302-2.768-.922-.63-.612-.936-1.468-.936-2.617 0-.581-.471-1.052-1.052-1.052h-1.654c-.581 0-1.052.471-1.052 1.052 0 2.085.61 3.772 1.813 5.013.838.865 1.913 1.464 3.208 1.792.462.117.783.536.783 1.013v.813c0 .581.471 1.052 1.052 1.052h1.392c.581 0 1.052-.471 1.052-1.052v-.862c0-.465.306-.879.753-1.004 1.114-.311 2.056-.839 2.812-1.58 1.147-1.125 1.728-2.604 1.728-4.398.001-1.126-.223-2.119-.666-2.955z" fill="#d1d3d4"/><path d="m146.45 75.423c-.442-.833-1.106-1.558-1.975-2.153-.819-.561-2.053-1.118-3.772-1.701-1.825-.62-2.666-1.174-3.05-1.53-.45-.416-.669-1.011-.669-1.816 0-.845.25-1.491.764-1.974.533-.5 1.297-.744 2.334-.744.988 0 1.734.3 2.278.919.58.658.861 1.555.861 2.744 0 .581.471 1.052 1.052 1.052h1.641c.581 0 1.052-.471 1.052-1.052 0-2.073-.53-3.759-1.575-5.011-.73-.874-1.664-1.494-2.788-1.854-.432-.138-.725-.541-.725-.995v-1.074c0-.581-.471-1.052-1.052-1.052h-1.406c-.581 0-1.052.471-1.052 1.052v1.046c0 .459-.298.869-.739 1-1.068.316-1.975.849-2.708 1.593-1.116 1.132-1.682 2.608-1.682 4.385 0 1.693.517 3.106 1.537 4.199.972 1.041 2.55 1.894 4.796 2.599 1.889.654 2.734 1.23 3.11 1.598.455.446.676 1.018.676 1.75 0 .815-.274 1.428-.862 1.928-.632.537-1.454.798-2.511.798-1.225 0-2.13-.302-2.768-.922-.63-.612-.936-1.468-.936-2.617 0-.581-.471-1.052-1.052-1.052h-1.654c-.581 0-1.052.471-1.052 1.052 0 2.085.61 3.772 1.813 5.013.838.865 1.913 1.464 3.208 1.792.462.117.783.536.783 1.013v.813c0 .581.471 1.052 1.052 1.052h1.392c.581 0 1.052-.471 1.052-1.052v-.862c0-.465.306-.879.753-1.004 1.114-.31 2.056-.839 2.812-1.58 1.147-1.125 1.728-2.604 1.728-4.398.001-1.126-.223-2.12-.666-2.955z" fill="#fff"/><path d="m160.48 159.376c1.71 0 3.145-1.364 3.147-3.074 0-.011 0-.021 0-.032 0-13.149-10.659-23.808-23.808-23.808s-23.808 10.659-23.808 23.808v.032c.002 1.71 1.438 3.074 3.148 3.074z" fill="#ef5a9d"/><path d="m160.48 153.166h-41.321c-1.137 0-2.142-.61-2.695-1.517-.294 1.496-.452 3.04-.452 4.622v.032c.002 1.71 1.438 3.074 3.148 3.074h41.321c1.71 0 3.145-1.364 3.147-3.074 0-.01 0-.021 0-.032 0-1.582-.158-3.127-.452-4.622-.555.907-1.559 1.517-2.696 1.517z" fill="#e43d91"/><path d="m192.922 150.366c-1.861-2.489-6.062-5.746-14.303-2.268-7.305 3.083-14.698 6.733-22.515 8.687-7.374 1.843-14.212 1.788-21.112-.709-.928-.336-.825-1.688.137-1.908l3.181-.729c5.212-1.193 8.825-6.396 8.841-12.238-.003-.07-.003-.139-.003-.212-.008-.702-.069-1.41-.183-2.125-.166-1.037-.96-2.005-2.076-2.079-.29-.019-.582.056-.838.194-.212.115-.424.231-.637.344-.525.28-1.052.554-1.583.822-1.032.522-2.076 1.021-3.131 1.495-7.418 3.333-15.465 5.088-23.515 6.012-7.935.911-15.802-.048-22.71 4.704-4.108 2.826-5.985 6.033-5.985 6.033v31.708l1.739-.245.093-.013c1.744-1.853 4.672-4.502 8.514-6.302 3.092-1.449 6.778-2.348 10.915-1.84 12.798 1.566 28.547 9.862 44.886 1.566 13.832-7.017 34.013-22.71 39.879-27.358 1.025-.816 1.217-2.459.406-3.539z" fill="#fede3a"/><path d="m145.111 136.812c.998.178 1.699 1.085 1.853 2.052.114.714.176 1.423.183 2.125 0 .073 0 .142.003.212-.016 5.842-3.629 11.045-8.841 12.238l-3.251.745c-.966.221-1.052 1.552-.128 1.913.415.162.831.318 1.249.466l2.21-.581c5.242-1.373 8.876-7.374 8.893-14.109-.003-.08-.003-.159-.003-.245-.008-.809-.07-1.625-.185-2.45-.206-1.441-1.188-2.441-2.273-2.399.099.004.197.016.29.033z" fill="#e7ad27"/><path d="m192.515 153.903c-5.866 4.651-26.047 20.344-39.882 27.363-16.339 8.291-32.086 0-44.883-1.569-4.137-.508-7.823.391-10.915 1.84-3.842 1.8-6.77 4.448-8.514 6.302l-.093.013-1.739.245v-3.138s3.614-5.068 9.687-8.144c3.22-1.633 7.137-2.707 11.574-2.162 12.798 1.569 28.544 9.859 44.883 1.569 13.441-6.823 32.875-21.83 39.347-26.941.364.362.678.731.941 1.082.812 1.086.62 2.729-.406 3.54z" fill="#f7cb15"/><path d="m171.196 153.177c.353-.664.963-1.347 1.155-2.078.026-.098.045-.201.059-.308-5.299 2.314-10.693 4.591-16.305 5.993-7.374 1.843-14.212 1.788-21.112-.709-.928-.336-.825-1.688.137-1.908l3.181-.729c5.212-1.193 8.825-6.396 8.841-12.238-.003-.07-.003-.139-.003-.212-.008-.702-.069-1.41-.183-2.125-.155-.967-.855-1.874-1.853-2.052-.294-.053-.633-.063-.901.081-.033.018-.067.036-.1.054.131.973.402 1.998.268 3.051-.219 1.724-.769 3.406-1.623 4.921-1.697 3.009-4.519 5.169-7.885 5.951-.13.03-.263.057-.393.085-.965.209-4.205.928-6.581 1.456-1.351.3-1.986 1.847-1.254 3.021.137.22.268.423.384.592 1.619 2.394 3.55 4.507 5.719 6.262 3.666 2.964 8.017 4.908 12.749 5.46.636.074 1.279.123 1.928.146 6.12.213 12.077-2.022 16.743-5.946 2.886-2.426 5.259-5.441 7.029-8.768z" fill="#f7cb15"/><path d="m94.934 186.914-6.613.925-.093.013-1.739.245-2.231.311c-1.438.202-2.765-.803-2.967-2.242l-4.986-35.654c-.202-1.438.8-2.765 2.239-2.967l10.676-1.494c.681-.093 1.34.08 1.864.449.58.399.994 1.034 1.104 1.792l.287 2.063 3.701 26.459.659 4.722.338 2.412c.202 1.437-.803 2.764-2.239 2.966z" fill="#fff"/><path d="m88.228 187.853 2.855-41.353c-.523-.368-1.182-.543-1.863-.448l-10.676 1.494c-1.437.202-2.441 1.53-2.239 2.967l4.987 35.655c.201 1.439 1.529 2.443 2.966 2.241z" fill="#e6e7e8"/><path d="m97.173 183.948-4.987-35.655c-.024-.174-.067-.341-.122-.501l4.375 31.281c.202 1.437-.802 2.765-2.239 2.967l-6.706.938-3.971.555c-1.26.177-2.437-.574-2.843-1.733l.611 4.367c.201 1.439 1.529 2.443 2.966 2.241l3.971-.555 6.706-.938c1.436-.202 2.44-1.53 2.239-2.967z" fill="#e6e7e8"/><path d="m69.607 190.758h11.839c1.971 0 3.569-1.598 3.569-3.569v-41.684c0-1.971-1.598-3.569-3.569-3.569h-11.839c-1.971 0-3.569 1.598-3.569 3.569v41.684c0 1.971 1.598 3.569 3.569 3.569z" fill="#1caee4"/><path d="m81.903 185.682h-12.754c-1.718 0-3.111-1.393-3.111-3.111v5.076c0 1.718 1.393 3.111 3.111 3.111h12.754c1.718 0 3.111-1.393 3.111-3.111v-5.076c0 1.718-1.393 3.111-3.111 3.111z" fill="#009add"/><circle cx="75.526" cy="178.439" fill="#009add" r="3.81"/><ellipse cx="75.526" cy="177.17" fill="#fff" rx="3.81" ry="3.81" transform="matrix(.23 -.973 .973 .23 -114.257 209.971)"/><path d="m75.526 178.865c-1.737 0-3.199-1.163-3.658-2.752-.097.336-.152.69-.152 1.057 0 2.104 1.706 3.81 3.81 3.81s3.81-1.706 3.81-3.81c0-.367-.055-.721-.152-1.057-.458 1.589-1.921 2.752-3.658 2.752z" fill="#e6e7e8"/></svg>